<svg xmlns="http://www.w3.org/2000/svg" width="1280" height="720" fill="none" viewBox="0 0 1280 720"><path fill="#fff" d="M0 0h1280v720H0z"/><path fill="#000" d="M43.408 183.16h16.384q6.145 0 10.24 4.608 4.608 4.096 4.608 10.24v16.384q0 6.144-4.608 10.752-4.096 4.096-10.24 4.096H43.408q-6.144 0-10.752-4.096-4.096-4.608-4.096-10.752v-16.384q0-6.144 4.096-10.24 4.608-4.608 10.752-4.608m51.2 0h16.384q6.144 0 10.24 4.608 4.608 4.096 4.608 10.24v16.384q0 6.144-4.608 10.752-4.096 4.096-10.24 4.096H94.608q-6.144 0-10.752-4.096-4.096-4.608-4.096-10.752v-16.384q0-6.144 4.096-10.24 4.608-4.608 10.752-4.608m51.2 0h16.384q6.144 0 10.24 4.608 4.608 4.096 4.608 10.24v16.384q0 6.144-4.608 10.752-4.096 4.096-10.24 4.096h-16.384q-6.144 0-10.752-4.096-4.096-4.608-4.096-10.752v-16.384q0-6.144 4.096-10.24 4.608-4.608 10.752-4.608m51.2 0h16.384q6.144 0 10.24 4.608 4.608 4.096 4.608 10.24v16.384q0 6.144-4.608 10.752-4.096 4.096-10.24 4.096h-16.384q-6.144 0-10.752-4.096-4.096-4.608-4.096-10.752v-16.384q0-6.144 4.096-10.24 4.608-4.608 10.752-4.608m51.2 0h16.384q6.144 0 10.24 4.608 4.608 4.096 4.608 10.24v16.384q0 6.144-4.608 10.752-4.096 4.096-10.24 4.096h-16.384q-6.144 0-10.752-4.096-4.096-4.608-4.096-10.752v-16.384q0-6.144 4.096-10.24 4.608-4.608 10.752-4.608m-102.4 51.2h16.384q6.144 0 10.24 4.608 4.608 4.096 4.608 10.24v16.384q0 6.144-4.608 10.752-4.096 4.096-10.24 4.096h-16.384q-6.144 0-10.752-4.096-4.096-4.608-4.096-10.752v-16.384q0-6.144 4.096-10.24 4.608-4.608 10.752-4.608m0 51.2h16.384q6.144 0 10.24 4.608 4.608 4.096 4.608 10.24v16.384q0 6.144-4.608 10.752-4.096 4.096-10.24 4.096h-16.384q-6.144 0-10.752-4.096-4.096-4.608-4.096-10.752v-16.384q0-6.144 4.096-10.24 4.608-4.608 10.752-4.608m0 51.2h16.384q6.144 0 10.24 4.608 4.608 4.096 4.608 10.24v16.384q0 6.144-4.608 10.752-4.096 4.096-10.24 4.096h-16.384q-6.144 0-10.752-4.096-4.096-4.608-4.096-10.752v-16.384q0-6.144 4.096-10.24 4.608-4.608 10.752-4.608m0 51.2h16.384q6.144 0 10.24 4.608 4.608 4.096 4.608 10.24v16.384q0 6.144-4.608 10.752-4.096 4.096-10.24 4.096h-16.384q-6.144 0-10.752-4.096-4.096-4.608-4.096-10.752v-16.384q0-6.144 4.096-10.24 4.608-4.608 10.752-4.608m0 51.2h16.384q6.144 0 10.24 4.608 4.608 4.096 4.608 10.24v16.384q0 6.144-4.608 10.752-4.096 4.096-10.24 4.096h-16.384q-6.144 0-10.752-4.096-4.096-4.608-4.096-10.752v-16.384q0-6.144 4.096-10.24 4.608-4.608 10.752-4.608m0 51.2h16.384q6.144 0 10.24 4.608 4.608 4.096 4.608 10.24v16.384q0 6.144-4.608 10.752-4.096 4.096-10.24 4.096h-16.384q-6.144 0-10.752-4.096-4.096-4.608-4.096-10.752v-16.384q0-6.144 4.096-10.24 4.608-4.608 10.752-4.608m204.6-307.2h16.384q6.144 0 10.24 4.608 4.608 4.096 4.608 10.24v16.384q0 6.144-4.608 10.752-4.096 4.096-10.24 4.096h-16.384q-6.144 0-10.752-4.096-4.096-4.608-4.096-10.752v-16.384q0-6.144 4.096-10.24 4.608-4.608 10.752-4.608m204.8 0h16.384q6.144 0 10.24 4.608 4.608 4.096 4.608 10.24v16.384q0 6.144-4.608 10.752-4.096 4.096-10.24 4.096h-16.384q-6.144 0-10.752-4.096-4.096-4.608-4.096-10.752v-16.384q0-6.144 4.096-10.24 4.608-4.608 10.752-4.608m-204.8 51.2h16.384q6.144 0 10.24 4.608 4.608 4.096 4.608 10.24v16.384q0 6.144-4.608 10.752-4.096 4.096-10.24 4.096h-16.384q-6.144 0-10.752-4.096-4.096-4.608-4.096-10.752v-16.384q0-6.144 4.096-10.24 4.608-4.608 10.752-4.608m204.8 0h16.384q6.144 0 10.24 4.608 4.608 4.096 4.608 10.24v16.384q0 6.144-4.608 10.752-4.096 4.096-10.24 4.096h-16.384q-6.144 0-10.752-4.096-4.096-4.608-4.096-10.752v-16.384q0-6.144 4.096-10.24 4.608-4.608 10.752-4.608m-204.8 51.2h16.384q6.144 0 10.24 4.608 4.608 4.096 4.608 10.24v16.384q0 6.144-4.608 10.752-4.096 4.096-10.24 4.096h-16.384q-6.144 0-10.752-4.096-4.096-4.608-4.096-10.752v-16.384q0-6.144 4.096-10.24 4.608-4.608 10.752-4.608m51.2 0h16.384q6.144 0 10.24 4.608 4.608 4.096 4.608 10.24v16.384q0 6.144-4.608 10.752-4.096 4.096-10.24 4.096h-16.384q-6.144 0-10.752-4.096-4.096-4.608-4.096-10.752v-16.384q0-6.144 4.096-10.24 4.608-4.608 10.752-4.608m153.6 0h16.384q6.144 0 10.24 4.608 4.608 4.096 4.608 10.24v16.384q0 6.144-4.608 10.752-4.096 4.096-10.24 4.096h-16.384q-6.144 0-10.752-4.096-4.096-4.608-4.096-10.752v-16.384q0-6.144 4.096-10.24 4.608-4.608 10.752-4.608m-204.8 51.2h16.384q6.144 0 10.24 4.608 4.608 4.096 4.608 10.24v16.384q0 6.144-4.608 10.752-4.096 4.096-10.24 4.096h-16.384q-6.144 0-10.752-4.096-4.096-4.608-4.096-10.752v-16.384q0-6.144 4.096-10.24 4.608-4.608 10.752-4.608m102.4 0h16.384q6.144 0 10.24 4.608 4.608 4.096 4.608 10.24v16.384q0 6.144-4.608 10.752-4.096 4.096-10.24 4.096h-16.384q-6.144 0-10.752-4.096-4.096-4.608-4.096-10.752v-16.384q0-6.144 4.096-10.24 4.608-4.608 10.752-4.608m102.4 0h16.384q6.144 0 10.24 4.608 4.608 4.096 4.608 10.24v16.384q0 6.144-4.608 10.752-4.096 4.096-10.24 4.096h-16.384q-6.144 0-10.752-4.096-4.096-4.608-4.096-10.752v-16.384q0-6.144 4.096-10.24 4.608-4.608 10.752-4.608m-204.8 51.2h16.384q6.144 0 10.24 4.608 4.608 4.096 4.608 10.24v16.384q0 6.144-4.608 10.752-4.096 4.096-10.24 4.096h-16.384q-6.144 0-10.752-4.096-4.096-4.608-4.096-10.752v-16.384q0-6.144 4.096-10.24 4.608-4.608 10.752-4.608m153.6 0h16.384q6.144 0 10.24 4.608 4.608 4.096 4.608 10.24v16.384q0 6.144-4.608 10.752-4.096 4.096-10.24 4.096h-16.384q-6.144 0-10.752-4.096-4.096-4.608-4.096-10.752v-16.384q0-6.144 4.096-10.24 4.608-4.608 10.752-4.608m51.2 0h16.384q6.144 0 10.24 4.608 4.608 4.096 4.608 10.24v16.384q0 6.144-4.608 10.752-4.096 4.096-10.24 4.096h-16.384q-6.144 0-10.752-4.096-4.096-4.608-4.096-10.752v-16.384q0-6.144 4.096-10.24 4.608-4.608 10.752-4.608m-204.8 51.2h16.384q6.144 0 10.24 4.608 4.608 4.096 4.608 10.24v16.384q0 6.144-4.608 10.752-4.096 4.096-10.24 4.096h-16.384q-6.144 0-10.752-4.096-4.096-4.608-4.096-10.752v-16.384q0-6.144 4.096-10.24 4.608-4.608 10.752-4.608m204.8 0h16.384q6.144 0 10.24 4.608 4.608 4.096 4.608 10.24v16.384q0 6.144-4.608 10.752-4.096 4.096-10.24 4.096h-16.384q-6.144 0-10.752-4.096-4.096-4.608-4.096-10.752v-16.384q0-6.144 4.096-10.24 4.608-4.608 10.752-4.608m-204.8 51.2h16.384q6.144 0 10.24 4.608 4.608 4.096 4.608 10.24v16.384q0 6.144-4.608 10.752-4.096 4.096-10.24 4.096h-16.384q-6.144 0-10.752-4.096-4.096-4.608-4.096-10.752v-16.384q0-6.144 4.096-10.24 4.608-4.608 10.752-4.608m204.8 0h16.384q6.144 0 10.24 4.608 4.608 4.096 4.608 10.24v16.384q0 6.144-4.608 10.752-4.096 4.096-10.24 4.096h-16.384q-6.144 0-10.752-4.096-4.096-4.608-4.096-10.752v-16.384q0-6.144 4.096-10.24 4.608-4.608 10.752-4.608m153.4-307.2h16.384q6.144 0 10.24 4.608 4.608 4.096 4.608 10.24v16.384q0 6.144-4.608 10.752-4.096 4.096-10.24 4.096h-16.384q-6.144 0-10.752-4.096-4.096-4.608-4.096-10.752v-16.384q0-6.144 4.096-10.24 4.608-4.608 10.752-4.608m51.2 0h16.384q6.144 0 10.24 4.608 4.608 4.096 4.608 10.24v16.384q0 6.144-4.608 10.752-4.096 4.096-10.24 4.096h-16.384q-6.144 0-10.752-4.096-4.096-4.608-4.096-10.752v-16.384q0-6.144 4.096-10.24 4.608-4.608 10.752-4.608m51.2 0h16.384q6.144 0 10.24 4.608 4.608 4.096 4.608 10.24v16.384q0 6.144-4.608 10.752-4.096 4.096-10.24 4.096h-16.384q-6.144 0-10.752-4.096-4.096-4.608-4.096-10.752v-16.384q0-6.144 4.096-10.24 4.608-4.608 10.752-4.608m-153.6 51.2h16.384q6.144 0 10.24 4.608 4.608 4.096 4.608 10.24v16.384q0 6.144-4.608 10.752-4.096 4.096-10.24 4.096h-16.384q-6.144 0-10.752-4.096-4.096-4.608-4.096-10.752v-16.384q0-6.144 4.096-10.24 4.608-4.608 10.752-4.608m204.8 0h16.384q6.144 0 10.24 4.608 4.608 4.096 4.608 10.24v16.384q0 6.144-4.608 10.752-4.096 4.096-10.24 4.096h-16.384q-6.144 0-10.752-4.096-4.096-4.608-4.096-10.752v-16.384q0-6.144 4.096-10.24 4.608-4.608 10.752-4.608m-204.8 51.2h16.384q6.144 0 10.24 4.608 4.608 4.096 4.608 10.24v16.384q0 6.144-4.608 10.752-4.096 4.096-10.24 4.096h-16.384q-6.144 0-10.752-4.096-4.096-4.608-4.096-10.752v-16.384q0-6.144 4.096-10.24 4.608-4.608 10.752-4.608m51.2 51.2h16.384q6.144 0 10.24 4.608 4.608 4.096 4.608 10.24v16.384q0 6.144-4.608 10.752-4.096 4.096-10.24 4.096h-16.384q-6.144 0-10.752-4.096-4.096-4.608-4.096-10.752v-16.384q0-6.144 4.096-10.24 4.608-4.608 10.752-4.608m51.2 0h16.384q6.144 0 10.24 4.608 4.608 4.096 4.608 10.24v16.384q0 6.144-4.608 10.752-4.096 4.096-10.24 4.096h-16.384q-6.144 0-10.752-4.096-4.096-4.608-4.096-10.752v-16.384q0-6.144 4.096-10.24 4.608-4.608 10.752-4.608m51.2 0h16.384q6.144 0 10.24 4.608 4.608 4.096 4.608 10.24v16.384q0 6.144-4.608 10.752-4.096 4.096-10.24 4.096h-16.384q-6.144 0-10.752-4.096-4.096-4.608-4.096-10.752v-16.384q0-6.144 4.096-10.24 4.608-4.608 10.752-4.608m51.2 51.2h16.384q6.144 0 10.24 4.608 4.608 4.096 4.608 10.24v16.384q0 6.144-4.608 10.752-4.096 4.096-10.24 4.096h-16.384q-6.144 0-10.752-4.096-4.096-4.608-4.096-10.752v-16.384q0-6.144 4.096-10.24 4.608-4.608 10.752-4.608m-204.8 51.2h16.384q6.144 0 10.24 4.608 4.608 4.096 4.608 10.24v16.384q0 6.144-4.608 10.752-4.096 4.096-10.24 4.096h-16.384q-6.144 0-10.752-4.096-4.096-4.608-4.096-10.752v-16.384q0-6.144 4.096-10.24 4.608-4.608 10.752-4.608m204.8 0h16.384q6.144 0 10.24 4.608 4.608 4.096 4.608 10.24v16.384q0 6.144-4.608 10.752-4.096 4.096-10.24 4.096h-16.384q-6.144 0-10.752-4.096-4.096-4.608-4.096-10.752v-16.384q0-6.144 4.096-10.24 4.608-4.608 10.752-4.608m-153.6 51.2h16.384q6.144 0 10.24 4.608 4.608 4.096 4.608 10.24v16.384q0 6.144-4.608 10.752-4.096 4.096-10.24 4.096h-16.384q-6.144 0-10.752-4.096-4.096-4.608-4.096-10.752v-16.384q0-6.144 4.096-10.24 4.608-4.608 10.752-4.608m51.2 0h16.384q6.144 0 10.24 4.608 4.608 4.096 4.608 10.24v16.384q0 6.144-4.608 10.752-4.096 4.096-10.24 4.096h-16.384q-6.144 0-10.752-4.096-4.096-4.608-4.096-10.752v-16.384q0-6.144 4.096-10.24 4.608-4.608 10.752-4.608m51.2 0h16.384q6.144 0 10.24 4.608 4.608 4.096 4.608 10.24v16.384q0 6.144-4.608 10.752-4.096 4.096-10.24 4.096h-16.384q-6.144 0-10.752-4.096-4.096-4.608-4.096-10.752v-16.384q0-6.144 4.096-10.24 4.608-4.608 10.752-4.608m255.802-307.2h16.38c4.1 0 7.51 1.536 10.24 4.608 3.07 2.731 4.61 6.144 4.61 10.24v16.384c0 4.096-1.54 7.68-4.61 10.752-2.73 2.731-6.14 4.096-10.24 4.096h-16.38c-4.1 0-7.68-1.365-10.75-4.096-2.73-3.072-4.1-6.656-4.1-10.752v-16.384c0-4.096 1.37-7.509 4.1-10.24 3.07-3.072 6.65-4.608 10.75-4.608m-51.2 51.2h16.38c4.1 0 7.51 1.536 10.24 4.608 3.07 2.731 4.61 6.144 4.61 10.24v16.384c0 4.096-1.54 7.68-4.61 10.752-2.73 2.731-6.14 4.096-10.24 4.096h-16.38c-4.1 0-7.68-1.365-10.75-4.096-2.73-3.072-4.1-6.656-4.1-10.752v-16.384c0-4.096 1.37-7.509 4.1-10.24 3.07-3.072 6.65-4.608 10.75-4.608m102.4 0h16.38c4.1 0 7.51 1.536 10.24 4.608 3.07 2.731 4.61 6.144 4.61 10.24v16.384c0 4.096-1.54 7.68-4.61 10.752-2.73 2.731-6.14 4.096-10.24 4.096h-16.38c-4.1 0-7.68-1.365-10.75-4.096-2.73-3.072-4.1-6.656-4.1-10.752v-16.384c0-4.096 1.37-7.509 4.1-10.24 3.07-3.072 6.65-4.608 10.75-4.608m-153.602 51.2h16.384q6.144 0 10.24 4.608 4.608 4.096 4.608 10.24v16.384q0 6.144-4.608 10.752-4.096 4.096-10.24 4.096h-16.384q-6.144 0-10.752-4.096-4.096-4.608-4.096-10.752v-16.384q0-6.144 4.096-10.24 4.608-4.608 10.752-4.608m204.802 0h16.38c4.1 0 7.51 1.536 10.24 4.608 3.07 2.731 4.61 6.144 4.61 10.24v16.384c0 4.096-1.54 7.68-4.61 10.752-2.73 2.731-6.14 4.096-10.24 4.096h-16.38c-4.1 0-7.68-1.365-10.75-4.096-2.73-3.072-4.1-6.656-4.1-10.752v-16.384c0-4.096 1.37-7.509 4.1-10.24 3.07-3.072 6.65-4.608 10.75-4.608m-204.802 51.2h16.384q6.144 0 10.24 4.608 4.608 4.096 4.608 10.24v16.384q0 6.144-4.608 10.752-4.096 4.096-10.24 4.096h-16.384q-6.144 0-10.752-4.096-4.096-4.608-4.096-10.752v-16.384q0-6.144 4.096-10.24 4.608-4.608 10.752-4.608m204.802 0h16.38c4.1 0 7.51 1.536 10.24 4.608 3.07 2.731 4.61 6.144 4.61 10.24v16.384c0 4.096-1.54 7.68-4.61 10.752-2.73 2.731-6.14 4.096-10.24 4.096h-16.38c-4.1 0-7.68-1.365-10.75-4.096-2.73-3.072-4.1-6.656-4.1-10.752v-16.384c0-4.096 1.37-7.509 4.1-10.24 3.07-3.072 6.65-4.608 10.75-4.608m-204.802 51.2h16.384q6.144 0 10.24 4.608 4.608 4.096 4.608 10.24v16.384q0 6.144-4.608 10.752-4.096 4.096-10.24 4.096h-16.384q-6.144 0-10.752-4.096-4.096-4.608-4.096-10.752v-16.384q0-6.144 4.096-10.24 4.608-4.608 10.752-4.608m51.202 0h16.38c4.1 0 7.51 1.536 10.24 4.608 3.07 2.731 4.61 6.144 4.61 10.24v16.384c0 4.096-1.54 7.68-4.61 10.752-2.73 2.731-6.14 4.096-10.24 4.096h-16.38c-4.1 0-7.68-1.365-10.75-4.096-2.73-3.072-4.1-6.656-4.1-10.752v-16.384c0-4.096 1.37-7.509 4.1-10.24 3.07-3.072 6.65-4.608 10.75-4.608m51.2 0h16.38c4.1 0 7.51 1.536 10.24 4.608 3.07 2.731 4.61 6.144 4.61 10.24v16.384c0 4.096-1.54 7.68-4.61 10.752-2.73 2.731-6.14 4.096-10.24 4.096h-16.38c-4.1 0-7.68-1.365-10.75-4.096-2.73-3.072-4.1-6.656-4.1-10.752v-16.384c0-4.096 1.37-7.509 4.1-10.24 3.07-3.072 6.65-4.608 10.75-4.608m51.2 0h16.38c4.1 0 7.51 1.536 10.24 4.608 3.07 2.731 4.61 6.144 4.61 10.24v16.384c0 4.096-1.54 7.68-4.61 10.752-2.73 2.731-6.14 4.096-10.24 4.096h-16.38c-4.1 0-7.68-1.365-10.75-4.096-2.73-3.072-4.1-6.656-4.1-10.752v-16.384c0-4.096 1.37-7.509 4.1-10.24 3.07-3.072 6.65-4.608 10.75-4.608m51.2 0h16.38c4.1 0 7.51 1.536 10.24 4.608 3.07 2.731 4.61 6.144 4.61 10.24v16.384c0 4.096-1.54 7.68-4.61 10.752-2.73 2.731-6.14 4.096-10.24 4.096h-16.38c-4.1 0-7.68-1.365-10.75-4.096-2.73-3.072-4.1-6.656-4.1-10.752v-16.384c0-4.096 1.37-7.509 4.1-10.24 3.07-3.072 6.65-4.608 10.75-4.608m-204.802 51.2h16.384q6.144 0 10.24 4.608 4.608 4.096 4.608 10.24v16.384q0 6.144-4.608 10.752-4.096 4.096-10.24 4.096h-16.384q-6.144 0-10.752-4.096-4.096-4.608-4.096-10.752v-16.384q0-6.144 4.096-10.24 4.608-4.608 10.752-4.608m204.802 0h16.38c4.1 0 7.51 1.536 10.24 4.608 3.07 2.731 4.61 6.144 4.61 10.24v16.384c0 4.096-1.54 7.68-4.61 10.752-2.73 2.731-6.14 4.096-10.24 4.096h-16.38c-4.1 0-7.68-1.365-10.75-4.096-2.73-3.072-4.1-6.656-4.1-10.752v-16.384c0-4.096 1.37-7.509 4.1-10.24 3.07-3.072 6.65-4.608 10.75-4.608m-204.802 51.2h16.384q6.144 0 10.24 4.608 4.608 4.096 4.608 10.24v16.384q0 6.144-4.608 10.752-4.096 4.096-10.24 4.096h-16.384q-6.144 0-10.752-4.096-4.096-4.608-4.096-10.752v-16.384q0-6.144 4.096-10.24 4.608-4.608 10.752-4.608m204.802 0h16.38c4.1 0 7.51 1.536 10.24 4.608 3.07 2.731 4.61 6.144 4.61 10.24v16.384c0 4.096-1.54 7.68-4.61 10.752-2.73 2.731-6.14 4.096-10.24 4.096h-16.38c-4.1 0-7.68-1.365-10.75-4.096-2.73-3.072-4.1-6.656-4.1-10.752v-16.384c0-4.096 1.37-7.509 4.1-10.24 3.07-3.072 6.65-4.608 10.75-4.608"/></svg>
